# xmcd
#
# Track frame offsets:
#	150
#	19317
#	27673
#	45283
#	65865
#	84094
#	106008
#	128812
#	136320
#	157734
#	179425
#	202636
#	221985
#	243631
#	253486
#	272136
#	292722
#	318402
#
# Disc length: 4344 seconds
#
# Revision: 0
# Processed by: cddbd v1.5.1PL0 Copyright (c) Steve Scherf et al.
# Submitted via: dBpowerAMP V4.0
#
DISCID=0110f612
DTITLE=Nelly - Nellyville
DYEAR=2002
DGENRE=Hip-Hop
TTITLE0=Nellyville
TTITLE1=Getin it startet
TTITLE2=Hot in Here
TTITLE3=Dem Boyz
TTITLE4=Oh Nelly
TTITLE5=Pimp Juice
TTITLE6=Air Force Ones
TTITLE7=In the Store
TTITLE8=On the Grind
TTITLE9=Dilemme
TTITLE10=Splurge
TTITLE11=Roc the Mic (Nellyville remix)
TTITLE12=The Gank
TTITLE13=5000
TTITLE14=#1
TTITLE15=CG 2
TTITLE16=Say Now
TTITLE17=Fuck it then
EXTD=
EXTT0=
EXTT1=
EXTT2=
EXTT3=
EXTT4=
EXTT5=
EXTT6=
EXTT7=
EXTT8=
EXTT9=
EXTT10=
EXTT11=
EXTT12=
EXTT13=
EXTT14=
EXTT15=
EXTT16=
EXTT17=
PLAYORDER=
